<?xml version="1.0" encoding="utf-8"?>
<!-- Generator: Adobe Illustrator 16.0.0, SVG Export Plug-In . SVG Version: 6.00 Build 0)  -->
<!DOCTYPE svg PUBLIC "-//W3C//DTD SVG 1.1//EN" "http://www.w3.org/Graphics/SVG/1.1/DTD/svg11.dtd">
<svg version="1.1" id="Layer_1" xmlns="http://www.w3.org/2000/svg" xmlns:xlink="http://www.w3.org/1999/xlink" x="0px" y="0px"
	 width="612px" height="792px" viewBox="0 0 612 792" enable-background="new 0 0 612 792" xml:space="preserve">
<path fill="#405189" d="M599.159,426.873L380.588,645.444c-8.47,8.606-19.672,12.842-30.874,12.842
	c-11.201,0-22.376-4.27-30.9-12.808c-17.076-17.075-17.076-44.738,0-61.814l144.012-143.95H43.714
	c-24.139,0-43.712-19.534-43.712-43.714s19.574-43.714,43.712-43.714h419.111L318.841,208.302
	c-17.076-17.076-17.076-44.739,0-61.814c17.076-17.076,44.739-17.076,61.815,0l218.571,218.571
	C616.234,382.203,616.234,409.797,599.159,426.873z"/>
</svg>
