<?xml version="1.0" encoding="utf-8"?>
<!-- Generator: Adobe Illustrator 16.0.0, SVG Export Plug-In . SVG Version: 6.00 Build 0)  -->
<!DOCTYPE svg PUBLIC "-//W3C//DTD SVG 1.1//EN" "http://www.w3.org/Graphics/SVG/1.1/DTD/svg11.dtd">
<svg version="1.1" id="Layer_1" xmlns="http://www.w3.org/2000/svg" xmlns:xlink="http://www.w3.org/1999/xlink" x="0px" y="0px"
	 width="612px" height="792px" viewBox="0 0 612 792" enable-background="new 0 0 612 792" xml:space="preserve">
<path fill="#405189" d="M610.771,396c0,24.18-18.306,43.714-42.484,43.714H149.312l143.984,143.984
	c17.076,17.076,17.076,44.739,0,61.814c-8.606,8.538-19.808,12.773-31.01,12.773s-22.376-4.27-30.9-12.808L12.814,426.907
	c-17.076-17.076-17.076-44.739,0-61.814l218.571-218.572c17.076-17.076,44.739-17.076,61.814,0
	c17.076,17.076,17.076,44.739,0,61.815l-143.888,143.95h418.975C592.465,352.286,610.771,371.82,610.771,396z"/>
</svg>
