<?xml version="1.0" encoding="utf-8"?>
<!-- Generator: Adobe Illustrator 16.0.0, SVG Export Plug-In . SVG Version: 6.00 Build 0)  -->
<!DOCTYPE svg PUBLIC "-//W3C//DTD SVG 1.1//EN" "http://www.w3.org/Graphics/SVG/1.1/DTD/svg11.dtd">
<svg version="1.1" id="Layer_1" xmlns="http://www.w3.org/2000/svg" xmlns:xlink="http://www.w3.org/1999/xlink" x="0px" y="0px"
	 width="612px" height="792px" viewBox="0 0 612 792" enable-background="new 0 0 612 792" xml:space="preserve">
<path fill="#405189" d="M592.756,289.139c3.944,10.28,0.598,21.874-7.531,29.405l-51.757,47.095
	c1.315,9.921,2.032,20.081,2.032,30.361c0,10.279-0.717,20.439-2.032,30.361l51.757,47.095c8.129,7.53,11.476,19.125,7.531,29.405
	c-5.26,14.224-11.595,27.97-18.767,40.999l-5.618,9.682c-7.889,13.148-16.734,25.58-26.416,37.413
	c-7.172,8.487-18.767,11.476-29.285,8.129l-66.579-21.277c-16.018,12.313-34.784,22.592-52.594,30.48l-14.941,68.253
	c-2.391,10.758-10.758,18.407-21.755,21.276c-16.495,2.749-33.469,4.184-51.876,4.184c-16.256,0-33.23-1.435-49.725-4.184
	c-10.997-2.869-19.364-10.519-21.755-21.276l-14.941-68.253c-18.886-7.889-36.576-18.168-52.594-30.48l-66.531,21.277
	c-10.567,3.347-22.221,0.358-29.297-8.129c-9.694-11.833-18.539-24.265-26.428-37.413l-5.594-9.682
	c-7.255-13.029-13.566-26.775-18.862-40.999c-3.873-10.28-0.61-21.875,7.59-29.405l51.709-47.095
	C77.181,416.439,76.5,406.279,76.5,396c0-10.28,0.681-20.44,1.996-30.361l-51.709-47.095c-8.2-7.531-11.463-19.006-7.59-29.405
	c5.295-14.224,11.618-27.97,18.862-41l5.582-9.682c7.901-13.148,16.747-25.58,26.44-37.354c7.076-8.547,18.73-11.511,29.297-8.14
	l66.531,21.229c16.018-12.359,33.708-22.639,52.594-30.444l14.941-68.252c2.391-10.854,10.758-19.472,21.755-21.301
	C271.694,91.436,288.668,90,306,90s34.306,1.436,50.801,4.195c10.997,1.829,19.364,10.447,21.755,21.301l14.941,68.252
	c17.81,7.805,36.576,18.085,52.594,30.444l66.579-21.229c10.519-3.371,22.113-0.407,29.285,8.14
	c9.682,11.773,18.527,24.205,26.416,37.354l5.618,9.682C581.161,261.169,587.496,274.915,592.756,289.139L592.756,289.139z
	 M306,491.625c52.833,0,95.625-42.792,95.625-96.701c0-51.757-42.792-95.625-95.625-95.625s-95.625,43.868-95.625,95.625
	C210.375,448.833,253.167,491.625,306,491.625z"/>
</svg>
