<?xml version="1.0" encoding="utf-8"?>
<!-- Generator: Adobe Illustrator 16.0.0, SVG Export Plug-In . SVG Version: 6.00 Build 0)  -->
<!DOCTYPE svg PUBLIC "-//W3C//DTD SVG 1.1//EN" "http://www.w3.org/Graphics/SVG/1.1/DTD/svg11.dtd">
<svg version="1.1" id="Layer_1" xmlns="http://www.w3.org/2000/svg" xmlns:xlink="http://www.w3.org/1999/xlink" x="0px" y="0px"
	 width="612px" height="792px" viewBox="0 0 612 792" enable-background="new 0 0 612 792" xml:space="preserve">
<path fill="#405189" d="M459,472.5c-21.121,0-38.25,17.129-38.25,38.25V625.5H76.5V281.25h114.75c21.121,0,38.25-17.117,38.25-38.25
	s-17.129-38.25-38.25-38.25H76.5c-42.254,0-76.5,34.246-76.5,76.5V625.5C0,667.742,34.246,702,76.5,702h344.25
	c42.254,0,76.5-34.258,76.5-76.5V510.75C497.25,489.593,480.157,472.5,459,472.5z M600.764,101.196
	C593.831,94.277,584.269,90,573.75,90H382.5c-21.121,0-37.174,17.117-37.174,37.174c0,21.121,17.116,37.174,38.237,37.174h98.912
	L213.603,437.478c-14.941,14.941-14.941,39.158,0,54.1c14.941,14.989,39.206,14.989,54.147,0.048L535.5,220.528V319.5
	c0,21.121,17.129,37.174,37.174,37.174c20.046,0,39.326-16.017,39.326-37.174V127.174C612,117.684,607.697,108.121,600.764,101.196z
	"/>
</svg>
